<svg width="194" height="103" viewBox="0 0 194 103" fill="none" xmlns="http://www.w3.org/2000/svg">
<g filter="url(#filter0_d_1_30)">
<path d="M4.88 10.52L14.864 0.535997V71H4.88V10.52ZM44.4268 23C47.6908 23 50.7628 23.64 53.6428 24.92C56.5868 26.136 59.1468 27.832 61.3228 30.008C63.4988 32.184 65.2268 34.744 66.5068 37.688C67.7868 40.568 68.4268 43.672 68.4268 47C68.4268 50.328 67.7868 53.464 66.5068 56.408C65.2268 59.288 63.4988 61.816 61.3228 63.992C59.1468 66.104 56.5868 67.8 53.6428 69.08C50.7628 70.296 47.6908 70.904 44.4268 70.904C41.0988 70.904 37.9628 70.296 35.0188 69.08C32.1388 67.8 29.6108 66.104 27.4348 63.992C25.3228 61.816 23.6268 59.288 22.3468 56.408C21.1308 53.464 20.5228 50.328 20.5228 47C20.5228 43.672 21.1308 40.568 22.3468 37.688C23.6268 34.744 25.3228 32.184 27.4348 30.008C29.6108 27.832 32.1388 26.136 35.0188 24.92C37.9628 23.64 41.0988 23 44.4268 23ZM44.4268 60.92C46.3468 60.92 48.1708 60.568 49.8988 59.864C51.6268 59.096 53.0988 58.104 54.3148 56.888C55.5948 55.608 56.5868 54.136 57.2908 52.472C58.0588 50.744 58.4428 48.92 58.4428 47C58.4428 45.08 58.0588 43.256 57.2908 41.528C56.5868 39.8 55.5948 38.328 54.3148 37.112C53.0988 35.832 51.6268 34.84 49.8988 34.136C48.1708 33.368 46.3468 32.984 44.4268 32.984C42.5068 32.984 40.6828 33.368 38.9548 34.136C37.2268 34.84 35.7228 35.832 34.4428 37.112C33.1628 38.328 32.1388 39.8 31.3708 41.528C30.6668 43.256 30.3148 45.08 30.3148 47C30.3148 48.92 30.6668 50.744 31.3708 52.472C32.1388 54.136 33.1628 55.608 34.4428 56.888C35.7228 58.104 37.2268 59.096 38.9548 59.864C40.6828 60.568 42.5068 60.92 44.4268 60.92ZM117.855 37.496C118.431 38.968 118.879 40.504 119.199 42.104C119.519 43.704 119.679 45.336 119.679 47V76.664C119.679 80.184 118.975 83.448 117.567 86.456C116.223 89.528 114.367 92.184 111.999 94.424L104.607 87.608C106.207 86.264 107.487 84.632 108.447 82.712C109.407 80.856 109.855 78.84 109.791 76.664L109.695 46.808C109.695 45.016 109.311 43.192 108.543 41.336C108.415 40.952 108.255 40.6 108.063 40.28C107.871 39.896 107.647 39.48 107.391 39.032C106.111 37.112 104.415 35.608 102.303 34.52C100.255 33.368 97.9828 32.792 95.4868 32.792C93.5668 32.792 91.7748 33.176 90.1108 33.944C88.4468 34.648 86.9748 35.64 85.6948 36.92C84.4148 38.2 83.3908 39.704 82.6228 41.432C81.9188 43.096 81.5668 44.888 81.5668 46.808C81.5668 48.728 81.9188 50.552 82.6228 52.28C83.3908 54.008 84.4148 55.512 85.6948 56.792C86.9748 58.072 88.4468 59.096 90.1108 59.864C91.7748 60.568 93.5668 60.92 95.4868 60.92C96.1908 60.92 96.8308 60.92 97.4068 60.92C97.9828 60.856 98.5588 60.728 99.1348 60.536L101.439 70.136C100.543 70.456 99.5828 70.68 98.5588 70.808C97.5988 70.936 96.5748 71 95.4868 71C92.4788 71 89.5988 70.456 86.8468 69.368C84.1588 68.28 81.7268 66.776 79.5508 64.856C77.4388 62.936 75.6788 60.696 74.2708 58.136C72.9268 55.512 72.0948 52.696 71.7748 49.688C71.6468 49.112 71.5828 48.6 71.5828 48.152C71.5828 47.704 71.5828 47.256 71.5828 46.808C71.5828 43.48 72.1908 40.376 73.4068 37.496C74.6868 34.616 76.4148 32.088 78.5908 29.912C80.7668 27.736 83.2948 26.04 86.1748 24.824C89.1188 23.544 92.2228 22.904 95.4868 22.904C97.9828 22.904 100.383 23.256 102.687 23.96C104.991 24.664 107.103 25.688 109.023 27.032C111.007 28.312 112.735 29.848 114.207 31.64C115.743 33.432 116.959 35.384 117.855 37.496ZM134.944 71H125.056V23H134.944V71ZM134.944 12.92H125.056V10.808L134.944 0.823999V12.92ZM189.101 71H179.117V47C179.117 45.08 178.733 43.256 177.965 41.528C177.261 39.8 176.269 38.328 174.989 37.112C173.709 35.832 172.205 34.84 170.477 34.136C168.813 33.368 167.021 32.984 165.101 32.984C163.181 32.984 161.357 33.368 159.629 34.136C157.965 34.84 156.493 35.832 155.213 37.112C153.933 38.328 152.909 39.8 152.141 41.528C151.437 43.256 151.085 45.08 151.085 47V71H141.101V47C141.037 43.736 141.613 40.664 142.829 37.784C144.109 34.84 145.837 32.28 148.013 30.104C150.189 27.928 152.749 26.2 155.693 24.92C158.637 23.64 161.773 23 165.101 23C168.429 23 171.565 23.64 174.509 24.92C177.453 26.2 180.013 27.928 182.189 30.104C184.365 32.28 186.061 34.84 187.277 37.784C188.557 40.664 189.165 43.736 189.101 47V71Z" fill="white"/>
</g>
<defs>
<filter id="filter0_d_1_30" x="0.880005" y="0.536011" width="192.317" height="101.888" filterUnits="userSpaceOnUse" color-interpolation-filters="sRGB">
<feFlood flood-opacity="0" result="BackgroundImageFix"/>
<feColorMatrix in="SourceAlpha" type="matrix" values="0 0 0 0 0 0 0 0 0 0 0 0 0 0 0 0 0 0 127 0" result="hardAlpha"/>
<feOffset dy="4"/>
<feGaussianBlur stdDeviation="2"/>
<feComposite in2="hardAlpha" operator="out"/>
<feColorMatrix type="matrix" values="0 0 0 0 0 0 0 0 0 0 0 0 0 0 0 0 0 0 0.25 0"/>
<feBlend mode="normal" in2="BackgroundImageFix" result="effect1_dropShadow_1_30"/>
<feBlend mode="normal" in="SourceGraphic" in2="effect1_dropShadow_1_30" result="shape"/>
</filter>
</defs>
</svg>
